<svg xmlns="http://www.w3.org/2000/svg" xml:space="preserve" fill="none" viewBox="0 0 348 348"><rect width="336.9" height="337.7" x="5" y="6" stroke="#000" stroke-width="2"/><ellipse cx="298.3" cy="40.5" stroke="#000" stroke-width="2" rx="15.9" ry="15.5"/><g stroke="#000" stroke-width="1.7" transform="translate(0 -23)"><rect width="17.8" height="18.4" x="56" y="298"/><rect width="17.8" height="18.4" x="36" y="298"/><rect width="17.8" height="18.4" x="77" y="298"/><rect width="17.8" height="18.4" x="98" y="298"/><rect width="17.8" height="18.4" x="118" y="298"/><rect width="17.8" height="18.4" x="139" y="298"/><rect width="17.8" height="18.4" x="159" y="298"/><rect width="17.8" height="18.4" x="180" y="298"/><rect width="17.8" height="18.4" x="201" y="298"/><rect width="17.8" height="18.4" x="221" y="298"/></g><g stroke="#000" stroke-width="1.7"><rect width="17.8" height="18.4" x="56" y="298"/><rect width="17.8" height="18.4" x="36" y="298"/><rect width="17.8" height="18.4" x="77" y="298"/><rect width="17.8" height="18.4" x="98" y="298"/><rect width="17.8" height="18.4" x="118" y="298"/><rect width="17.8" height="18.4" x="139" y="298"/><rect width="17.8" height="18.4" x="159" y="298"/><rect width="17.8" height="18.4" x="180" y="298"/><rect width="17.8" height="18.4" x="201" y="298"/><rect width="17.8" height="18.4" x="221" y="298"/></g><g stroke="#000" stroke-width="1.7" transform="translate(0 -46)"><rect width="17.8" height="18.4" x="56" y="298"/><rect width="17.8" height="18.4" x="36" y="298"/><rect width="17.8" height="18.4" x="77" y="298"/><rect width="17.8" height="18.4" x="98" y="298"/><rect width="17.8" height="18.4" x="118" y="298"/><rect width="17.8" height="18.4" x="139" y="298"/><rect width="17.8" height="18.4" x="159" y="298"/><rect width="17.8" height="18.4" x="180" y="298"/><rect width="17.8" height="18.4" x="201" y="298"/><rect width="17.8" height="18.4" x="221" y="298"/></g><g stroke="#000" stroke-width="1.7" transform="translate(0 -69)"><rect width="17.8" height="18.4" x="56" y="298"/><rect width="17.8" height="18.4" x="36" y="298"/><rect width="17.8" height="18.4" x="77" y="298"/><rect width="17.8" height="18.4" x="98" y="298"/><rect width="17.8" height="18.4" x="118" y="298"/><rect width="17.8" height="18.4" x="139" y="298"/><rect width="17.8" height="18.4" x="159" y="298"/><rect width="17.8" height="18.4" x="180" y="298"/><rect width="17.8" height="18.4" x="201" y="298"/><rect width="17.8" height="18.4" x="221" y="298"/></g><g stroke="#000" stroke-width="1.7" transform="translate(0 -92)"><rect width="17.8" height="18.4" x="56" y="298"/><rect width="17.8" height="18.4" x="36" y="298"/><rect width="17.8" height="18.4" x="77" y="298"/><rect width="17.8" height="18.4" x="98" y="298"/><rect width="17.8" height="18.4" x="118" y="298"/><rect width="17.8" height="18.4" x="139" y="298"/><rect width="17.8" height="18.4" x="159" y="298"/><rect width="17.8" height="18.4" x="180" y="298"/><rect width="17.8" height="18.4" x="201" y="298"/><rect width="17.8" height="18.4" x="221" y="298"/></g><g stroke="#000" stroke-width="1.7" transform="translate(0 -115)"><rect width="17.8" height="18.4" x="56" y="298"/><rect width="17.8" height="18.4" x="36" y="298"/><rect width="17.8" height="18.4" x="77" y="298"/><rect width="17.8" height="18.4" x="98" y="298"/><rect width="17.8" height="18.4" x="118" y="298"/><rect width="17.8" height="18.4" x="139" y="298"/><rect width="17.8" height="18.4" x="159" y="298"/><rect width="17.8" height="18.4" x="180" y="298"/><rect width="17.8" height="18.4" x="201" y="298"/><rect width="17.8" height="18.4" x="221" y="298"/></g><g stroke="#000" stroke-width="1.7" transform="translate(0 -138)"><rect width="17.8" height="18.4" x="56" y="298"/><rect width="17.8" height="18.4" x="36" y="298"/><rect width="17.8" height="18.4" x="77" y="298"/><rect width="17.8" height="18.4" x="98" y="298"/><rect width="17.8" height="18.4" x="118" y="298"/><rect width="17.8" height="18.4" x="139" y="298"/><rect width="17.8" height="18.4" x="159" y="298"/><rect width="17.8" height="18.4" x="180" y="298"/><rect width="17.8" height="18.4" x="201" y="298"/><rect width="17.8" height="18.4" x="221" y="298"/></g><g stroke="#000" stroke-width="1.7" transform="translate(0 -161)"><rect width="17.8" height="18.4" x="56" y="298"/><rect width="17.8" height="18.4" x="36" y="298"/><rect width="17.8" height="18.4" x="77" y="298"/><rect width="17.8" height="18.4" x="98" y="298"/><rect width="17.8" height="18.4" x="118" y="298"/><rect width="17.8" height="18.4" x="139" y="298"/><rect width="17.8" height="18.4" x="159" y="298"/><rect width="17.8" height="18.4" x="180" y="298"/><rect width="17.8" height="18.4" x="201" y="298"/><rect width="17.8" height="18.4" x="221" y="298"/></g><g stroke="#000" stroke-width="1.7" transform="translate(0 -184)"><rect width="17.8" height="18.4" x="56" y="298"/><rect width="17.8" height="18.4" x="36" y="298"/><rect width="17.8" height="18.4" x="77" y="298"/><rect width="17.8" height="18.4" x="98" y="298"/><rect width="17.8" height="18.4" x="118" y="298"/><rect width="17.8" height="18.4" x="139" y="298"/><rect width="17.8" height="18.4" x="159" y="298"/><rect width="17.8" height="18.4" x="180" y="298"/><rect width="17.8" height="18.4" x="201" y="298"/><rect width="17.8" height="18.4" x="221" y="298"/></g><g stroke="#000" stroke-width="1.7" transform="translate(0 -207)"><rect width="17.8" height="18.4" x="56" y="298"/><rect width="17.8" height="18.4" x="36" y="298"/><rect width="17.8" height="18.4" x="77" y="298"/><rect width="17.8" height="18.4" x="98" y="298"/><rect width="17.8" height="18.4" x="118" y="298"/><rect width="17.8" height="18.4" x="139" y="298"/><rect width="17.8" height="18.4" x="159" y="298"/><rect width="17.8" height="18.4" x="180" y="298"/><rect width="17.8" height="18.4" x="201" y="298"/><rect width="17.8" height="18.4" x="221" y="298"/></g></svg>